<mxfile host="app.diagrams.net" modified="2021-12-23T12:00:31.441Z" agent="5.0 (Windows NT 10.0; Win64; x64) AppleWebKit/537.36 (KHTML, like Gecko) Chrome/96.0.4664.110 Safari/537.36" etag="B4FqmNJMHC4yMfVZdeq6" version="16.0.3" type="github">
  <diagram id="JY90piQw2uxfF_v2Hei0" name="Page-1">
    <mxGraphModel dx="1422" dy="794" grid="1" gridSize="10" guides="1" tooltips="1" connect="1" arrows="1" fold="1" page="1" pageScale="1" pageWidth="827" pageHeight="1169" math="0" shadow="0">
      <root>
        <mxCell id="0" />
        <mxCell id="1" parent="0" />
        <mxCell id="KtbgEdEMvETasA2hPfuy-2" style="edgeStyle=orthogonalEdgeStyle;rounded=0;orthogonalLoop=1;jettySize=auto;html=1;fontFamily=Helvetica;entryX=0.575;entryY=-0.05;entryDx=0;entryDy=0;entryPerimeter=0;" edge="1" parent="1" source="KtbgEdEMvETasA2hPfuy-1" target="KtbgEdEMvETasA2hPfuy-3">
          <mxGeometry relative="1" as="geometry">
            <mxPoint x="240" y="370" as="targetPoint" />
            <Array as="points">
              <mxPoint x="90" y="165" />
              <mxPoint x="90" y="932" />
            </Array>
          </mxGeometry>
        </mxCell>
        <mxCell id="KtbgEdEMvETasA2hPfuy-4" style="edgeStyle=orthogonalEdgeStyle;rounded=0;orthogonalLoop=1;jettySize=auto;html=1;exitX=1;exitY=0.5;exitDx=0;exitDy=0;fontFamily=Helvetica;entryX=0.619;entryY=0.015;entryDx=0;entryDy=0;entryPerimeter=0;" edge="1" parent="1" source="KtbgEdEMvETasA2hPfuy-1" target="KtbgEdEMvETasA2hPfuy-5">
          <mxGeometry relative="1" as="geometry">
            <mxPoint x="650" y="400" as="targetPoint" />
            <Array as="points">
              <mxPoint x="770" y="165" />
              <mxPoint x="770" y="902" />
            </Array>
          </mxGeometry>
        </mxCell>
        <mxCell id="KtbgEdEMvETasA2hPfuy-1" value="Main board" style="rounded=0;whiteSpace=wrap;html=1;fillColor=#d5e8d4;strokeColor=#82b366;fontFamily=Helvetica;" vertex="1" parent="1">
          <mxGeometry x="340" y="90" width="189" height="150" as="geometry" />
        </mxCell>
        <mxCell id="KtbgEdEMvETasA2hPfuy-8" style="edgeStyle=orthogonalEdgeStyle;rounded=0;orthogonalLoop=1;jettySize=auto;html=1;exitX=1;exitY=0.5;exitDx=0;exitDy=0;entryX=0;entryY=0.5;entryDx=0;entryDy=0;fontFamily=Helvetica;" edge="1" parent="1" source="KtbgEdEMvETasA2hPfuy-3" target="KtbgEdEMvETasA2hPfuy-5">
          <mxGeometry relative="1" as="geometry" />
        </mxCell>
        <mxCell id="KtbgEdEMvETasA2hPfuy-3" value="number of lines depending on resolution and size of board" style="rounded=1;whiteSpace=wrap;html=1;fontFamily=Helvetica;" vertex="1" parent="1">
          <mxGeometry x="40" y="935" width="120" height="60" as="geometry" />
        </mxCell>
        <mxCell id="KtbgEdEMvETasA2hPfuy-5" value="game pieces - size needs to be dependent on square created from lines" style="ellipse;whiteSpace=wrap;html=1;fontFamily=Helvetica;" vertex="1" parent="1">
          <mxGeometry x="660" y="900" width="160" height="130" as="geometry" />
        </mxCell>
      </root>
    </mxGraphModel>
  </diagram>
</mxfile>
